999
"DXF R12 Output" (www.mydxf.blogspot.com)
 0 
SECTION
 2 
HEADER
 9 
$ACADVER
 1 
AC1009
 9 
$EXTMIN
 10 
 0 
 20 
 0 
 9 
$EXTMAX
 10 
 8.5 
 20 
 11 
 0 
ENDSEC
 0 
SECTION
 2 
ENTITIES
0
LINE
8
Layer 1
10
121.708180
20
5.279286
11
121.708180
21
5.014703
0
LINE
8
Layer 1
10
51.593685
20
44.966736
11
51.593685
21
44.702153
0
LINE
8
Layer 1
10
51.593685
20
44.702153
11
51.064519
21
44.172987
0
LINE
8
Layer 1
10
51.064519
20
44.172987
11
51.064519
21
43.908404
0
LINE
8
Layer 1
10
51.064519
20
43.908404
11
50.535353
21
43.379238
0
LINE
8
Layer 1
10
50.535353
20
43.379238
11
50.535353
21
43.114655
0
LINE
8
Layer 1
10
50.535353
20
43.114655
11
50.270770
21
42.850072
0
LINE
8
Layer 1
10
50.270770
20
42.850072
11
50.270770
21
42.320906
0
LINE
8
Layer 1
10
50.270770
20
42.320906
11
49.477021
21
41.527157
0
LINE
8
Layer 1
10
49.477021
20
41.527157
11
49.477021
21
41.262574
0
LINE
8
Layer 1
10
49.477021
20
41.262574
11
49.212438
21
40.997991
0
LINE
8
Layer 1
10
49.212438
20
40.997991
11
48.947855
21
40.997991
0
LINE
8
Layer 1
10
48.947855
20
40.997991
11
47.889523
21
39.939659
0
LINE
8
Layer 1
10
47.889523
20
39.939659
11
47.624940
21
39.939659
0
LINE
8
Layer 1
10
47.624940
20
39.939659
11
47.095774
21
39.410493
0
LINE
8
Layer 1
10
47.095774
20
39.410493
11
46.566608
21
39.410493
0
LINE
8
Layer 1
10
46.566608
20
39.410493
11
46.302025
21
39.145910
0
LINE
8
Layer 1
10
46.302025
20
39.145910
11
45.772859
21
39.145910
0
LINE
8
Layer 1
10
45.772859
20
39.145910
11
45.508276
21
39.410493
0
LINE
8
Layer 1
10
45.508276
20
39.410493
11
44.714527
21
39.410493
0
LINE
8
Layer 1
10
44.714527
20
39.410493
11
44.185361
21
39.939659
0
LINE
8
Layer 1
10
44.185361
20
39.939659
11
43.127029
21
39.939659
0
LINE
8
Layer 1
10
43.127029
20
39.939659
11
43.127029
21
39.675076
0
LINE
8
Layer 1
10
43.127029
20
39.675076
11
43.391612
21
39.410493
0
LINE
8
Layer 1
10
43.391612
20
39.410493
11
43.391612
21
38.881327
0
LINE
8
Layer 1
10
43.391612
20
38.881327
11
43.656195
21
38.616744
0
LINE
8
Layer 1
10
43.656195
20
38.616744
11
43.656195
21
38.352161
0
LINE
8
Layer 1
10
43.656195
20
38.352161
11
43.920778
21
38.087578
0
LINE
8
Layer 1
10
43.920778
20
38.087578
11
44.185361
21
38.087578
0
LINE
8
Layer 1
10
44.185361
20
38.087578
11
44.449944
21
38.352161
0
LINE
8
Layer 1
10
44.449944
20
38.352161
11
44.714527
21
38.352161
0
LINE
8
Layer 1
10
44.714527
20
38.352161
11
44.979110
21
38.616744
0
LINE
8
Layer 1
10
44.979110
20
38.616744
11
47.095774
21
38.616744
0
LINE
8
Layer 1
10
47.095774
20
38.616744
11
47.360357
21
38.881327
0
LINE
8
Layer 1
10
47.360357
20
38.881327
11
47.889523
21
38.881327
0
LINE
8
Layer 1
10
47.889523
20
38.881327
11
48.418689
21
39.410493
0
LINE
8
Layer 1
10
48.418689
20
39.410493
11
48.683272
21
39.410493
0
LINE
8
Layer 1
10
48.683272
20
39.410493
11
48.947855
21
39.675076
0
LINE
8
Layer 1
10
48.947855
20
39.675076
11
49.212438
21
39.675076
0
LINE
8
Layer 1
10
49.212438
20
39.675076
11
49.212438
21
39.939659
0
LINE
8
Layer 1
10
49.212438
20
39.939659
11
49.477021
21
40.204242
0
LINE
8
Layer 1
10
49.477021
20
40.204242
11
49.741604
21
40.204242
0
LINE
8
Layer 1
10
49.741604
20
40.204242
11
50.535353
21
40.997991
0
LINE
8
Layer 1
10
50.535353
20
40.997991
11
51.329102
21
40.997991
0
LINE
8
Layer 1
10
51.329102
20
40.997991
11
51.593685
21
40.733408
0
LINE
8
Layer 1
10
51.593685
20
40.733408
11
51.858268
21
40.997991
0
LINE
8
Layer 1
10
51.858268
20
40.997991
11
52.652017
21
40.997991
0
LINE
8
Layer 1
10
52.652017
20
40.997991
11
53.974932
21
39.675076
0
LINE
8
Layer 1
10
53.974932
20
39.675076
11
54.239515
21
39.675076
0
LINE
8
Layer 1
10
54.239515
20
39.675076
11
54.504098
21
39.410493
0
LINE
8
Layer 1
10
54.504098
20
39.410493
11
54.768681
21
39.410493
0
LINE
8
Layer 1
10
54.768681
20
39.410493
11
55.033264
21
39.145910
0
LINE
8
Layer 1
10
55.033264
20
39.145910
11
55.297847
21
39.145910
0
LINE
8
Layer 1
10
55.297847
20
39.145910
11
55.562430
21
38.881327
0
LINE
8
Layer 1
10
55.562430
20
38.881327
11
56.356179
21
38.881327
0
LINE
8
Layer 1
10
56.356179
20
38.881327
11
56.620762
21
38.616744
0
LINE
8
Layer 1
10
56.620762
20
38.616744
11
58.208260
21
38.616744
0
LINE
8
Layer 1
10
58.208260
20
38.616744
11
58.472843
21
38.352161
0
LINE
8
Layer 1
10
58.472843
20
38.352161
11
59.002009
21
38.352161
0
LINE
8
Layer 1
10
59.002009
20
38.352161
11
59.266592
21
38.087578
0
LINE
8
Layer 1
10
59.266592
20
38.087578
11
59.531175
21
38.352161
0
LINE
8
Layer 1
10
59.531175
20
38.352161
11
59.531175
21
38.616744
0
LINE
8
Layer 1
10
59.531175
20
38.616744
11
59.795758
21
38.881327
0
LINE
8
Layer 1
10
59.795758
20
38.881327
11
59.795758
21
39.145910
0
LINE
8
Layer 1
10
59.795758
20
39.145910
11
60.324924
21
39.675076
0
LINE
8
Layer 1
10
60.324924
20
39.675076
11
60.324924
21
40.468825
0
LINE
8
Layer 1
10
60.324924
20
40.468825
11
60.060341
21
40.468825
0
LINE
8
Layer 1
10
60.060341
20
40.468825
11
59.795758
21
40.204242
0
LINE
8
Layer 1
10
59.795758
20
40.204242
11
59.266592
21
40.204242
0
LINE
8
Layer 1
10
59.266592
20
40.204242
11
59.002009
21
39.939659
0
LINE
8
Layer 1
10
59.002009
20
39.939659
11
58.472843
21
39.939659
0
LINE
8
Layer 1
10
58.472843
20
39.939659
11
58.208260
21
39.675076
0
LINE
8
Layer 1
10
58.208260
20
39.675076
11
57.679094
21
39.675076
0
LINE
8
Layer 1
10
57.679094
20
39.675076
11
57.414511
21
39.410493
0
LINE
8
Layer 1
10
57.414511
20
39.410493
11
57.149928
21
39.675076
0
LINE
8
Layer 1
10
57.149928
20
39.675076
11
56.885345
21
39.675076
0
LINE
8
Layer 1
10
56.885345
20
39.675076
11
56.620762
21
39.939659
0
LINE
8
Layer 1
10
56.620762
20
39.939659
11
55.827013
21
39.939659
0
LINE
8
Layer 1
10
55.827013
20
39.939659
11
55.562430
21
40.204242
0
LINE
8
Layer 1
10
55.562430
20
40.204242
11
55.297847
21
40.204242
0
LINE
8
Layer 1
10
55.297847
20
40.204242
11
54.504098
21
40.997991
0
LINE
8
Layer 1
10
54.504098
20
40.997991
11
54.239515
21
40.997991
0
LINE
8
Layer 1
10
54.239515
20
40.997991
11
53.974932
21
41.262574
0
LINE
8
Layer 1
10
53.974932
20
41.262574
11
53.974932
21
41.527157
0
LINE
8
Layer 1
10
53.974932
20
41.527157
11
52.916600
21
42.585489
0
LINE
8
Layer 1
10
52.916600
20
42.585489
11
52.916600
21
42.850072
0
LINE
8
Layer 1
10
52.916600
20
42.850072
11
52.652017
21
43.114655
0
LINE
8
Layer 1
10
52.652017
20
43.114655
11
52.652017
21
43.379238
0
LINE
8
Layer 1
10
52.652017
20
43.379238
11
52.122851
21
43.908404
0
LINE
8
Layer 1
10
52.122851
20
43.908404
11
52.122851
21
44.172987
0
LINE
8
Layer 1
10
52.122851
20
44.172987
11
51.858268
21
44.437570
0
LINE
8
Layer 1
10
51.858268
20
44.437570
11
51.858268
21
44.702153
0
LINE
8
Layer 1
10
51.329102
20
47.612566
11
51.329102
21
47.083400
0
LINE
8
Layer 1
10
51.329102
20
47.083400
11
51.593685
21
46.818817
0
LINE
8
Layer 1
10
51.593685
20
46.818817
11
51.593685
21
46.554234
0
LINE
8
Layer 1
10
51.593685
20
46.554234
11
51.858268
21
46.818817
0
LINE
8
Layer 1
10
51.858268
20
46.818817
11
51.858268
21
47.612566
 0 
ENDSEC
 0 
EOF