999
"DXF R12 Output" (www.mydxf.blogspot.com)
 0 
SECTION
 2 
HEADER
 9 
$ACADVER
 1 
AC1009
 9 
$EXTMIN
 10 
 0 
 20 
 0 
 9 
$EXTMAX
 10 
 8.5 
 20 
 11 
 0 
ENDSEC
 0 
SECTION
 2 
ENTITIES
0
LINE
8
Layer 1
10
79.374900
20
45.760485
11
79.110317
21
45.495902
0
LINE
8
Layer 1
10
79.110317
20
45.495902
11
79.110317
21
45.231319
0
LINE
8
Layer 1
10
79.110317
20
45.231319
11
79.374900
21
44.966736
0
LINE
8
Layer 1
10
79.374900
20
44.966736
11
79.374900
21
44.702153
0
LINE
8
Layer 1
10
79.374900
20
44.702153
11
80.433232
21
43.643821
0
LINE
8
Layer 1
10
80.433232
20
43.643821
11
80.168649
21
43.379238
0
LINE
8
Layer 1
10
80.168649
20
43.379238
11
80.168649
21
42.056323
0
LINE
8
Layer 1
10
80.168649
20
42.056323
11
79.904066
21
41.791740
0
LINE
8
Layer 1
10
79.904066
20
41.791740
11
79.904066
21
32.002169
0
LINE
8
Layer 1
10
79.904066
20
32.002169
11
80.168649
21
31.737586
0
LINE
8
Layer 1
10
80.168649
20
31.737586
11
80.168649
21
28.827173
0
LINE
8
Layer 1
10
80.168649
20
28.827173
11
79.639483
21
28.298007
0
LINE
8
Layer 1
10
79.639483
20
28.298007
11
79.374900
21
28.298007
0
LINE
8
Layer 1
10
79.374900
20
28.298007
11
79.110317
21
28.562590
0
LINE
8
Layer 1
10
79.110317
20
28.562590
11
79.110317
21
28.827173
0
LINE
8
Layer 1
10
79.110317
20
28.827173
11
78.845734
21
29.091756
0
LINE
8
Layer 1
10
78.845734
20
29.091756
11
78.845734
21
30.150088
0
LINE
8
Layer 1
10
78.845734
20
30.150088
11
78.581151
21
30.414671
0
LINE
8
Layer 1
10
78.581151
20
30.414671
11
78.581151
21
30.943837
0
LINE
8
Layer 1
10
78.581151
20
30.943837
11
78.316568
21
30.679254
0
LINE
8
Layer 1
10
78.316568
20
30.679254
11
78.316568
21
30.150088
0
LINE
8
Layer 1
10
78.316568
20
30.150088
11
78.051985
21
29.885505
0
LINE
8
Layer 1
10
78.051985
20
29.885505
11
78.051985
21
29.091756
0
LINE
8
Layer 1
10
78.051985
20
29.091756
11
78.316568
21
28.827173
0
LINE
8
Layer 1
10
78.316568
20
28.827173
11
78.316568
21
26.445926
0
LINE
8
Layer 1
10
78.316568
20
26.445926
11
78.581151
21
26.181343
0
LINE
8
Layer 1
10
78.581151
20
26.181343
11
78.581151
21
25.916760
0
LINE
8
Layer 1
10
78.581151
20
25.916760
11
78.845734
21
25.652177
0
LINE
8
Layer 1
10
78.845734
20
25.652177
11
78.845734
21
24.858428
0
LINE
8
Layer 1
10
78.845734
20
24.858428
11
79.110317
21
24.593845
0
LINE
8
Layer 1
10
79.110317
20
24.593845
11
79.110317
21
24.064679
0
LINE
8
Layer 1
10
79.110317
20
24.064679
11
79.374900
21
23.800096
0
LINE
8
Layer 1
10
79.374900
20
23.800096
11
79.374900
21
19.566768
0
LINE
8
Layer 1
10
79.374900
20
19.566768
11
79.110317
21
19.302185
0
LINE
8
Layer 1
10
79.110317
20
19.302185
11
79.110317
21
16.920938
0
LINE
8
Layer 1
10
79.110317
20
16.920938
11
78.845734
21
16.656355
0
LINE
8
Layer 1
10
78.845734
20
16.656355
11
78.845734
21
16.127189
0
LINE
8
Layer 1
10
78.845734
20
16.127189
11
78.581151
21
15.862606
0
LINE
8
Layer 1
10
78.581151
20
15.862606
11
78.581151
21
15.598023
0
LINE
8
Layer 1
10
78.581151
20
15.598023
11
78.316568
21
15.333440
0
LINE
8
Layer 1
10
78.316568
20
15.333440
11
78.316568
21
14.804274
0
LINE
8
Layer 1
10
78.316568
20
14.804274
11
78.581151
21
14.539691
0
LINE
8
Layer 1
10
78.581151
20
14.539691
11
79.374900
21
15.333440
0
LINE
8
Layer 1
10
79.374900
20
15.333440
11
80.433232
21
14.275108
0
LINE
8
Layer 1
10
80.433232
20
14.275108
11
80.962398
21
14.804274
0
LINE
8
Layer 1
10
80.962398
20
14.804274
11
80.962398
21
15.598023
0
LINE
8
Layer 1
10
80.962398
20
15.598023
11
81.226981
21
15.862606
0
LINE
8
Layer 1
10
81.226981
20
15.862606
11
81.491564
21
15.862606
0
LINE
8
Layer 1
10
81.491564
20
15.862606
11
81.756147
21
15.598023
0
LINE
8
Layer 1
10
81.756147
20
15.598023
11
81.756147
21
15.333440
0
LINE
8
Layer 1
10
81.756147
20
15.333440
11
82.020730
21
15.068857
0
LINE
8
Layer 1
10
82.020730
20
15.068857
11
82.020730
21
14.804274
0
LINE
8
Layer 1
10
82.020730
20
14.804274
11
82.285313
21
14.539691
0
LINE
8
Layer 1
10
82.285313
20
14.539691
11
82.285313
21
14.010525
0
LINE
8
Layer 1
10
82.285313
20
14.010525
11
82.549896
21
14.275108
0
LINE
8
Layer 1
10
82.549896
20
14.275108
11
82.549896
21
14.804274
0
LINE
8
Layer 1
10
82.549896
20
14.804274
11
82.814479
21
15.068857
0
LINE
8
Layer 1
10
82.814479
20
15.068857
11
82.814479
21
17.714687
0
LINE
8
Layer 1
10
82.814479
20
17.714687
11
82.549896
21
17.979270
0
LINE
8
Layer 1
10
82.549896
20
17.979270
11
82.549896
21
18.508436
0
LINE
8
Layer 1
10
82.549896
20
18.508436
11
81.756147
21
19.302185
0
LINE
8
Layer 1
10
81.756147
20
19.302185
11
81.756147
21
19.831351
0
LINE
8
Layer 1
10
81.756147
20
19.831351
11
81.491564
21
20.095934
0
LINE
8
Layer 1
10
81.491564
20
20.095934
11
81.491564
21
20.625100
0
LINE
8
Layer 1
10
81.491564
20
20.625100
11
81.756147
21
20.889683
0
LINE
8
Layer 1
10
81.756147
20
20.889683
11
81.756147
21
21.154266
0
LINE
8
Layer 1
10
81.756147
20
21.154266
11
82.549896
21
21.948015
0
LINE
8
Layer 1
10
82.549896
20
21.948015
11
82.549896
21
22.212598
0
LINE
8
Layer 1
10
82.549896
20
22.212598
11
82.814479
21
22.477181
0
LINE
8
Layer 1
10
82.814479
20
22.477181
11
82.814479
21
23.270930
0
LINE
8
Layer 1
10
82.814479
20
23.270930
11
83.343645
21
23.800096
0
LINE
8
Layer 1
10
83.343645
20
23.800096
11
83.343645
21
24.064679
0
LINE
8
Layer 1
10
83.343645
20
24.064679
11
83.608228
21
24.329262
0
LINE
8
Layer 1
10
83.608228
20
24.329262
11
83.608228
21
29.356339
0
LINE
8
Layer 1
10
83.608228
20
29.356339
11
83.343645
21
29.620922
0
LINE
8
Layer 1
10
83.343645
20
29.620922
11
83.343645
21
29.885505
0
LINE
8
Layer 1
10
83.343645
20
29.885505
11
82.814479
21
29.356339
0
LINE
8
Layer 1
10
82.814479
20
29.356339
11
82.814479
21
27.768841
0
LINE
8
Layer 1
10
82.814479
20
27.768841
11
83.079062
21
27.504258
0
LINE
8
Layer 1
10
83.079062
20
27.504258
11
83.079062
21
26.181343
0
LINE
8
Layer 1
10
83.079062
20
26.181343
11
82.814479
21
25.916760
0
LINE
8
Layer 1
10
82.814479
20
25.916760
11
82.814479
21
24.858428
0
LINE
8
Layer 1
10
82.814479
20
24.858428
11
82.285313
21
24.329262
0
LINE
8
Layer 1
10
82.285313
20
24.329262
11
82.285313
21
23.800096
0
LINE
8
Layer 1
10
82.285313
20
23.800096
11
82.020730
21
23.535513
0
LINE
8
Layer 1
10
82.020730
20
23.535513
11
82.020730
21
23.006347
0
LINE
8
Layer 1
10
82.020730
20
23.006347
11
81.756147
21
22.741764
0
LINE
8
Layer 1
10
81.756147
20
22.741764
11
81.756147
21
22.477181
0
LINE
8
Layer 1
10
81.756147
20
22.477181
11
81.226981
21
21.948015
0
LINE
8
Layer 1
10
81.226981
20
21.948015
11
80.433232
21
21.948015
0
LINE
8
Layer 1
10
80.433232
20
21.948015
11
80.168649
21
22.212598
0
LINE
8
Layer 1
10
80.168649
20
22.212598
11
80.168649
21
22.477181
0
LINE
8
Layer 1
10
80.168649
20
22.477181
11
80.433232
21
22.741764
0
LINE
8
Layer 1
10
80.433232
20
22.741764
11
80.433232
21
24.329262
0
LINE
8
Layer 1
10
80.433232
20
24.329262
11
80.697815
21
24.593845
0
LINE
8
Layer 1
10
80.697815
20
24.593845
11
80.433232
21
24.858428
0
LINE
8
Layer 1
10
80.433232
20
24.858428
11
80.433232
21
30.414671
0
LINE
8
Layer 1
10
80.433232
20
30.414671
11
80.697815
21
30.679254
0
LINE
8
Layer 1
10
80.697815
20
30.679254
11
80.697815
21
37.822995
0
LINE
8
Layer 1
10
80.697815
20
37.822995
11
80.962398
21
38.087578
0
LINE
8
Layer 1
10
80.962398
20
38.087578
11
80.962398
21
40.468825
0
LINE
8
Layer 1
10
80.962398
20
40.468825
11
81.226981
21
40.733408
0
LINE
8
Layer 1
10
81.226981
20
40.733408
11
81.226981
21
40.997991
0
LINE
8
Layer 1
10
81.226981
20
40.997991
11
81.491564
21
41.262574
0
LINE
8
Layer 1
10
81.491564
20
41.262574
11
81.491564
21
41.791740
0
LINE
8
Layer 1
10
81.491564
20
41.791740
11
81.756147
21
42.056323
0
LINE
8
Layer 1
10
81.756147
20
42.056323
11
81.756147
21
42.320906
0
LINE
8
Layer 1
10
81.756147
20
42.320906
11
82.020730
21
42.585489
0
LINE
8
Layer 1
10
82.020730
20
42.585489
11
82.020730
21
43.114655
0
LINE
8
Layer 1
10
82.020730
20
43.114655
11
82.549896
21
43.643821
0
LINE
8
Layer 1
10
82.549896
20
43.643821
11
82.285313
21
43.908404
0
LINE
8
Layer 1
10
82.285313
20
43.908404
11
82.285313
21
44.437570
0
LINE
8
Layer 1
10
82.285313
20
44.437570
11
81.756147
21
44.966736
0
LINE
8
Layer 1
10
81.756147
20
44.966736
11
80.697815
21
44.966736
0
LINE
8
Layer 1
10
80.697815
20
44.966736
11
80.433232
21
45.231319
0
LINE
8
Layer 1
10
80.433232
20
45.231319
11
80.168649
21
45.231319
0
LINE
8
Layer 1
10
80.168649
20
45.231319
11
79.639483
21
45.760485
0
LINE
8
Layer 1
10
85.195726
20
49.464647
11
84.931143
21
49.200064
0
LINE
8
Layer 1
10
84.931143
20
49.200064
11
84.931143
21
48.141732
0
LINE
8
Layer 1
10
84.931143
20
48.141732
11
85.195726
21
47.877149
0
LINE
8
Layer 1
10
85.195726
20
47.877149
11
85.195726
21
47.083400
0
LINE
8
Layer 1
10
85.195726
20
47.083400
11
85.460309
21
46.818817
0
LINE
8
Layer 1
10
85.460309
20
46.818817
11
85.460309
21
45.231319
0
LINE
8
Layer 1
10
85.460309
20
45.231319
11
85.724892
21
44.966736
0
LINE
8
Layer 1
10
85.724892
20
44.966736
11
85.724892
21
41.262574
0
LINE
8
Layer 1
10
85.724892
20
41.262574
11
85.460309
21
40.997991
0
LINE
8
Layer 1
10
85.460309
20
40.997991
11
85.460309
21
40.204242
0
LINE
8
Layer 1
10
85.460309
20
40.204242
11
85.195726
21
39.939659
0
LINE
8
Layer 1
10
85.195726
20
39.939659
11
85.195726
21
39.145910
0
LINE
8
Layer 1
10
85.195726
20
39.145910
11
84.931143
21
38.881327
0
LINE
8
Layer 1
10
84.931143
20
38.881327
11
84.931143
21
38.087578
0
LINE
8
Layer 1
10
84.931143
20
38.087578
11
84.666560
21
37.822995
0
LINE
8
Layer 1
10
84.666560
20
37.822995
11
84.666560
21
37.558412
0
LINE
8
Layer 1
10
84.666560
20
37.558412
11
84.401977
21
37.293829
0
LINE
8
Layer 1
10
84.401977
20
37.293829
11
84.137394
21
37.293829
0
LINE
8
Layer 1
10
84.137394
20
37.293829
11
84.137394
21
36.764663
0
LINE
8
Layer 1
10
84.137394
20
36.764663
11
83.872811
21
36.500080
0
LINE
8
Layer 1
10
83.872811
20
36.500080
11
83.872811
21
35.970914
0
LINE
8
Layer 1
10
83.872811
20
35.970914
11
83.608228
21
35.706331
0
LINE
8
Layer 1
10
83.608228
20
35.706331
11
83.608228
21
35.441748
0
LINE
8
Layer 1
10
83.608228
20
35.441748
11
83.343645
21
35.177165
0
LINE
8
Layer 1
10
83.343645
20
35.177165
11
83.343645
21
34.912582
0
LINE
8
Layer 1
10
83.343645
20
34.912582
11
83.079062
21
34.647999
0
LINE
8
Layer 1
10
83.079062
20
34.647999
11
83.079062
21
34.118833
0
LINE
8
Layer 1
10
83.079062
20
34.118833
11
82.814479
21
33.854250
0
LINE
8
Layer 1
10
82.814479
20
33.854250
11
82.814479
21
32.266752
0
LINE
8
Layer 1
10
82.814479
20
32.266752
11
83.079062
21
32.002169
0
LINE
8
Layer 1
10
83.079062
20
32.002169
11
83.343645
21
32.002169
0
LINE
8
Layer 1
10
83.343645
20
32.002169
11
83.343645
21
32.266752
0
LINE
8
Layer 1
10
83.343645
20
32.266752
11
83.608228
21
32.531335
0
LINE
8
Layer 1
10
83.608228
20
32.531335
11
83.608228
21
33.060501
0
LINE
8
Layer 1
10
83.608228
20
33.060501
11
83.872811
21
33.325084
0
LINE
8
Layer 1
10
83.872811
20
33.325084
11
83.872811
21
33.589667
0
LINE
8
Layer 1
10
83.872811
20
33.589667
11
84.137394
21
33.854250
0
LINE
8
Layer 1
10
84.137394
20
33.854250
11
84.137394
21
34.118833
0
LINE
8
Layer 1
10
84.137394
20
34.118833
11
84.401977
21
34.383416
0
LINE
8
Layer 1
10
84.401977
20
34.383416
11
84.401977
21
34.647999
0
LINE
8
Layer 1
10
84.401977
20
34.647999
11
84.666560
21
34.912582
0
LINE
8
Layer 1
10
84.666560
20
34.912582
11
84.666560
21
35.706331
0
LINE
8
Layer 1
10
84.666560
20
35.706331
11
84.931143
21
35.970914
0
LINE
8
Layer 1
10
84.931143
20
35.970914
11
84.931143
21
36.500080
0
LINE
8
Layer 1
10
84.931143
20
36.500080
11
85.195726
21
36.764663
0
LINE
8
Layer 1
10
85.195726
20
36.764663
11
85.195726
21
37.293829
0
LINE
8
Layer 1
10
85.195726
20
37.293829
11
85.460309
21
37.558412
0
LINE
8
Layer 1
10
85.460309
20
37.558412
11
85.460309
21
39.410493
0
LINE
8
Layer 1
10
85.460309
20
39.410493
11
86.254058
21
40.204242
0
LINE
8
Layer 1
10
86.254058
20
40.204242
11
86.254058
21
42.585489
0
LINE
8
Layer 1
10
86.254058
20
42.585489
11
86.518641
21
42.850072
0
LINE
8
Layer 1
10
86.518641
20
42.850072
11
86.518641
21
46.289651
0
LINE
8
Layer 1
10
86.518641
20
46.289651
11
86.254058
21
46.554234
0
LINE
8
Layer 1
10
86.254058
20
46.554234
11
86.254058
21
47.347983
0
LINE
8
Layer 1
10
86.254058
20
47.347983
11
85.460309
21
48.141732
0
LINE
8
Layer 1
10
85.460309
20
48.141732
11
85.460309
21
48.670898
0
LINE
8
Layer 1
10
85.460309
20
48.670898
11
85.195726
21
48.935481
0
LINE
8
Layer 1
10
74.083240
20
77.510445
11
73.818657
21
77.245862
0
LINE
8
Layer 1
10
73.818657
20
77.245862
11
73.554074
21
77.245862
0
LINE
8
Layer 1
10
73.554074
20
77.245862
11
73.289491
21
76.981279
0
LINE
8
Layer 1
10
73.289491
20
76.981279
11
68.262414
21
76.981279
0
LINE
8
Layer 1
10
68.262414
20
76.981279
11
67.997831
21
76.716696
0
LINE
8
Layer 1
10
67.997831
20
76.716696
11
67.468665
21
76.716696
0
LINE
8
Layer 1
10
67.468665
20
76.716696
11
67.204082
21
76.452113
0
LINE
8
Layer 1
10
67.204082
20
76.452113
11
66.939499
21
76.452113
0
LINE
8
Layer 1
10
66.939499
20
76.452113
11
66.674916
21
76.187530
0
LINE
8
Layer 1
10
66.674916
20
76.187530
11
66.939499
21
75.922947
0
LINE
8
Layer 1
10
66.939499
20
75.922947
11
68.791580
21
75.922947
0
LINE
8
Layer 1
10
68.791580
20
75.922947
11
69.320746
21
75.393781
0
LINE
8
Layer 1
10
69.320746
20
75.393781
11
69.320746
21
75.129198
0
LINE
8
Layer 1
10
69.320746
20
75.129198
11
71.172827
21
75.129198
0
LINE
8
Layer 1
10
71.172827
20
75.129198
11
71.437410
21
75.393781
0
LINE
8
Layer 1
10
71.437410
20
75.393781
11
72.760325
21
75.393781
0
LINE
8
Layer 1
10
72.760325
20
75.393781
11
73.024908
21
75.129198
0
LINE
8
Layer 1
10
73.024908
20
75.129198
11
73.289491
21
75.129198
0
LINE
8
Layer 1
10
73.289491
20
75.129198
11
73.818657
21
74.600032
0
LINE
8
Layer 1
10
73.818657
20
74.600032
11
73.818657
21
74.070866
0
LINE
8
Layer 1
10
73.818657
20
74.070866
11
73.554074
21
73.806283
0
LINE
8
Layer 1
10
73.554074
20
73.806283
11
73.554074
21
70.366704
0
LINE
8
Layer 1
10
73.554074
20
70.366704
11
73.289491
21
70.102121
0
LINE
8
Layer 1
10
73.289491
20
70.102121
11
73.024908
21
70.102121
0
LINE
8
Layer 1
10
73.024908
20
70.102121
11
72.760325
21
69.837538
0
LINE
8
Layer 1
10
72.760325
20
69.837538
11
72.495742
21
70.102121
0
LINE
8
Layer 1
10
72.495742
20
70.102121
11
72.231159
21
70.102121
0
LINE
8
Layer 1
10
72.231159
20
70.102121
11
69.849912
21
72.483368
0
LINE
8
Layer 1
10
69.849912
20
72.483368
11
69.849912
21
72.747951
0
LINE
8
Layer 1
10
69.849912
20
72.747951
11
69.585329
21
72.747951
0
LINE
8
Layer 1
10
69.585329
20
72.747951
11
68.791580
21
73.541700
0
LINE
8
Layer 1
10
68.791580
20
73.541700
11
68.791580
21
73.277117
0
LINE
8
Layer 1
10
68.791580
20
73.277117
11
67.997831
21
72.483368
0
LINE
8
Layer 1
10
67.997831
20
72.483368
11
67.204082
21
73.277117
0
LINE
8
Layer 1
10
67.204082
20
73.277117
11
67.204082
21
73.541700
0
LINE
8
Layer 1
10
67.204082
20
73.541700
11
66.939499
21
73.541700
0
LINE
8
Layer 1
10
66.939499
20
73.541700
11
66.145750
21
74.335449
0
LINE
8
Layer 1
10
66.145750
20
74.335449
11
66.145750
21
74.600032
0
LINE
8
Layer 1
10
66.145750
20
74.600032
11
65.881167
21
74.600032
0
LINE
8
Layer 1
10
65.881167
20
74.600032
11
65.881167
21
73.277117
0
LINE
8
Layer 1
10
65.881167
20
73.277117
11
66.674916
21
72.483368
0
LINE
8
Layer 1
10
66.674916
20
72.483368
11
66.674916
21
72.218785
0
LINE
8
Layer 1
10
66.674916
20
72.218785
11
66.939499
21
71.954202
0
LINE
8
Layer 1
10
66.939499
20
71.954202
11
67.204082
21
71.954202
0
LINE
8
Layer 1
10
67.204082
20
71.954202
11
67.468665
21
71.689619
0
LINE
8
Layer 1
10
67.468665
20
71.689619
11
67.468665
21
71.425036
0
LINE
8
Layer 1
10
67.468665
20
71.425036
11
69.320746
21
69.572955
0
LINE
8
Layer 1
10
69.320746
20
69.572955
11
69.320746
21
69.308372
0
LINE
8
Layer 1
10
69.320746
20
69.308372
11
69.585329
21
69.043789
0
LINE
8
Layer 1
10
69.585329
20
69.043789
11
69.849912
21
69.043789
0
LINE
8
Layer 1
10
69.849912
20
69.043789
11
70.114495
21
68.779206
0
LINE
8
Layer 1
10
70.114495
20
68.779206
11
70.114495
21
68.514623
0
LINE
8
Layer 1
10
70.114495
20
68.514623
11
71.437410
21
67.191708
0
LINE
8
Layer 1
10
71.437410
20
67.191708
11
71.437410
21
66.927125
0
LINE
8
Layer 1
10
71.437410
20
66.927125
11
71.701993
21
66.662542
0
LINE
8
Layer 1
10
71.701993
20
66.662542
11
71.701993
21
66.397959
0
LINE
8
Layer 1
10
71.701993
20
66.397959
11
72.231159
21
65.868793
0
LINE
8
Layer 1
10
72.231159
20
65.868793
11
72.231159
21
65.604210
0
LINE
8
Layer 1
10
72.231159
20
65.604210
11
72.495742
21
65.339627
0
LINE
8
Layer 1
10
72.495742
20
65.339627
11
72.495742
21
65.075044
0
LINE
8
Layer 1
10
72.495742
20
65.075044
11
72.760325
21
64.810461
0
LINE
8
Layer 1
10
72.760325
20
64.810461
11
72.760325
21
64.545878
0
LINE
8
Layer 1
10
72.760325
20
64.545878
11
73.024908
21
64.281295
0
LINE
8
Layer 1
10
73.024908
20
64.281295
11
73.024908
21
64.016712
0
LINE
8
Layer 1
10
73.024908
20
64.016712
11
73.289491
21
63.752129
0
LINE
8
Layer 1
10
73.289491
20
63.752129
11
73.289491
21
62.958380
0
LINE
8
Layer 1
10
73.289491
20
62.958380
11
73.818657
21
62.429214
0
LINE
8
Layer 1
10
73.818657
20
62.429214
11
74.083240
21
62.429214
0
LINE
8
Layer 1
10
74.083240
20
62.429214
11
74.347823
21
62.164631
0
LINE
8
Layer 1
10
74.347823
20
62.164631
11
74.347823
21
61.900048
0
LINE
8
Layer 1
10
74.347823
20
61.900048
11
74.612406
21
61.635465
0
LINE
8
Layer 1
10
74.612406
20
61.635465
11
74.612406
21
61.370882
0
LINE
8
Layer 1
10
74.612406
20
61.370882
11
74.876989
21
61.370882
0
LINE
8
Layer 1
10
74.876989
20
61.370882
11
75.141572
21
61.106299
0
LINE
8
Layer 1
10
75.141572
20
61.106299
11
75.141572
21
60.841716
0
LINE
8
Layer 1
10
75.141572
20
60.841716
11
75.406155
21
60.577133
0
LINE
8
Layer 1
10
75.406155
20
60.577133
11
75.406155
21
60.312550
0
LINE
8
Layer 1
10
75.406155
20
60.312550
11
75.670738
21
60.047967
0
LINE
8
Layer 1
10
75.670738
20
60.047967
11
75.406155
21
59.783384
0
LINE
8
Layer 1
10
75.406155
20
59.783384
11
75.406155
21
59.518801
0
LINE
8
Layer 1
10
75.406155
20
59.518801
11
75.141572
21
59.254218
0
LINE
8
Layer 1
10
75.141572
20
59.254218
11
75.141572
21
57.931303
0
LINE
8
Layer 1
10
75.141572
20
57.931303
11
75.406155
21
57.666720
0
LINE
8
Layer 1
10
75.406155
20
57.666720
11
75.406155
21
56.608388
0
LINE
8
Layer 1
10
75.406155
20
56.608388
11
75.670738
21
56.343805
0
LINE
8
Layer 1
10
75.670738
20
56.343805
11
75.670738
21
55.550056
0
LINE
8
Layer 1
10
75.670738
20
55.550056
11
75.935321
21
55.285473
0
LINE
8
Layer 1
10
75.935321
20
55.285473
11
75.935321
21
52.639643
0
LINE
8
Layer 1
10
75.935321
20
52.639643
11
75.670738
21
52.375060
0
LINE
8
Layer 1
10
75.670738
20
52.375060
11
75.670738
21
51.581311
0
LINE
8
Layer 1
10
75.670738
20
51.581311
11
75.406155
21
51.316728
0
LINE
8
Layer 1
10
75.406155
20
51.316728
11
75.406155
21
49.200064
0
LINE
8
Layer 1
10
75.406155
20
49.200064
11
75.141572
21
48.935481
0
LINE
8
Layer 1
10
75.141572
20
48.935481
11
75.141572
21
47.612566
0
LINE
8
Layer 1
10
75.141572
20
47.612566
11
74.876989
21
47.347983
0
LINE
8
Layer 1
10
74.876989
20
47.347983
11
74.876989
21
46.554234
0
LINE
8
Layer 1
10
74.876989
20
46.554234
11
74.612406
21
46.289651
0
LINE
8
Layer 1
10
74.612406
20
46.289651
11
74.612406
21
45.495902
0
LINE
8
Layer 1
10
74.612406
20
45.495902
11
74.347823
21
45.231319
0
LINE
8
Layer 1
10
74.347823
20
45.231319
11
74.347823
21
42.320906
0
LINE
8
Layer 1
10
74.347823
20
42.320906
11
74.612406
21
42.056323
0
LINE
8
Layer 1
10
74.612406
20
42.056323
11
74.612406
21
40.997991
0
LINE
8
Layer 1
10
74.612406
20
40.997991
11
74.876989
21
40.733408
0
LINE
8
Layer 1
10
74.876989
20
40.733408
11
74.876989
21
40.204242
0
LINE
8
Layer 1
10
74.876989
20
40.204242
11
75.141572
21
39.939659
0
LINE
8
Layer 1
10
75.141572
20
39.939659
11
75.141572
21
38.616744
0
LINE
8
Layer 1
10
75.141572
20
38.616744
11
75.406155
21
38.352161
0
LINE
8
Layer 1
10
75.406155
20
38.352161
11
75.406155
21
37.293829
0
LINE
8
Layer 1
10
75.406155
20
37.293829
11
75.935321
21
36.764663
0
LINE
8
Layer 1
10
75.935321
20
36.764663
11
75.935321
21
36.235497
0
LINE
8
Layer 1
10
75.935321
20
36.235497
11
76.199904
21
35.970914
0
LINE
8
Layer 1
10
76.199904
20
35.970914
11
76.199904
21
35.441748
0
LINE
8
Layer 1
10
76.199904
20
35.441748
11
76.464487
21
35.177165
0
LINE
8
Layer 1
10
76.464487
20
35.177165
11
76.464487
21
34.912582
0
LINE
8
Layer 1
10
76.464487
20
34.912582
11
76.993653
21
34.383416
0
LINE
8
Layer 1
10
76.993653
20
34.383416
11
76.993653
21
34.118833
0
LINE
8
Layer 1
10
76.993653
20
34.118833
11
77.522819
21
33.589667
0
LINE
8
Layer 1
10
77.522819
20
33.589667
11
77.787402
21
33.589667
0
LINE
8
Layer 1
10
77.787402
20
33.589667
11
78.051985
21
33.854250
0
LINE
8
Layer 1
10
78.051985
20
33.854250
11
78.051985
21
34.912582
0
LINE
8
Layer 1
10
78.051985
20
34.912582
11
77.787402
21
35.177165
0
LINE
8
Layer 1
10
77.787402
20
35.177165
11
77.787402
21
35.441748
0
LINE
8
Layer 1
10
77.787402
20
35.441748
11
77.258236
21
35.970914
0
LINE
8
Layer 1
10
77.258236
20
35.970914
11
77.258236
21
36.235497
0
LINE
8
Layer 1
10
77.258236
20
36.235497
11
76.993653
21
36.500080
0
LINE
8
Layer 1
10
76.993653
20
36.500080
11
76.993653
21
37.293829
0
LINE
8
Layer 1
10
76.993653
20
37.293829
11
76.729070
21
37.558412
0
LINE
8
Layer 1
10
76.729070
20
37.558412
11
76.729070
21
37.822995
0
LINE
8
Layer 1
10
76.729070
20
37.822995
11
76.464487
21
38.087578
0
LINE
8
Layer 1
10
76.464487
20
38.087578
11
76.464487
21
38.352161
0
LINE
8
Layer 1
10
76.464487
20
38.352161
11
76.199904
21
38.616744
0
LINE
8
Layer 1
10
76.199904
20
38.616744
11
76.199904
21
38.881327
0
LINE
8
Layer 1
10
76.199904
20
38.881327
11
75.935321
21
39.145910
0
LINE
8
Layer 1
10
75.935321
20
39.145910
11
75.935321
21
40.733408
0
LINE
8
Layer 1
10
75.935321
20
40.733408
11
75.670738
21
40.997991
0
LINE
8
Layer 1
10
75.670738
20
40.997991
11
75.670738
21
45.760485
0
LINE
8
Layer 1
10
75.670738
20
45.760485
11
75.935321
21
46.025068
0
LINE
8
Layer 1
10
75.935321
20
46.025068
11
75.935321
21
50.258396
0
LINE
8
Layer 1
10
75.935321
20
50.258396
11
76.199904
21
50.522979
0
LINE
8
Layer 1
10
76.199904
20
50.522979
11
76.199904
21
50.787562
0
LINE
8
Layer 1
10
76.199904
20
50.787562
11
76.464487
21
51.052145
0
LINE
8
Layer 1
10
76.464487
20
51.052145
11
76.464487
21
51.316728
0
LINE
8
Layer 1
10
76.464487
20
51.316728
11
76.729070
21
51.581311
0
LINE
8
Layer 1
10
76.729070
20
51.581311
11
76.729070
21
52.904226
0
LINE
8
Layer 1
10
76.729070
20
52.904226
11
76.993653
21
53.168809
0
LINE
8
Layer 1
10
76.993653
20
53.168809
11
76.993653
21
54.227141
0
LINE
8
Layer 1
10
76.993653
20
54.227141
11
76.729070
21
54.491724
0
LINE
8
Layer 1
10
76.729070
20
54.491724
11
76.729070
21
56.079222
0
LINE
8
Layer 1
10
76.729070
20
56.079222
11
76.464487
21
56.343805
0
LINE
8
Layer 1
10
76.464487
20
56.343805
11
76.464487
21
57.137554
0
LINE
8
Layer 1
10
76.464487
20
57.137554
11
76.199904
21
57.402137
0
LINE
8
Layer 1
10
76.199904
20
57.402137
11
76.199904
21
57.931303
0
LINE
8
Layer 1
10
76.199904
20
57.931303
11
75.935321
21
58.195886
0
LINE
8
Layer 1
10
75.935321
20
58.195886
11
75.935321
21
59.254218
0
LINE
8
Layer 1
10
75.935321
20
59.254218
11
75.670738
21
59.518801
0
LINE
8
Layer 1
10
75.670738
20
59.518801
11
75.670738
21
60.312550
0
LINE
8
Layer 1
10
75.670738
20
60.312550
11
76.199904
21
60.841716
0
LINE
8
Layer 1
10
76.199904
20
60.841716
11
76.464487
21
60.841716
0
LINE
8
Layer 1
10
76.464487
20
60.841716
11
76.729070
21
61.106299
0
LINE
8
Layer 1
10
76.729070
20
61.106299
11
76.729070
21
61.370882
0
LINE
8
Layer 1
10
76.729070
20
61.370882
11
76.993653
21
61.635465
0
LINE
8
Layer 1
10
76.993653
20
61.635465
11
76.993653
21
61.900048
0
LINE
8
Layer 1
10
76.993653
20
61.900048
11
76.464487
21
61.900048
0
LINE
8
Layer 1
10
76.464487
20
61.900048
11
76.199904
21
62.164631
0
LINE
8
Layer 1
10
76.199904
20
62.164631
11
75.406155
21
62.164631
0
LINE
8
Layer 1
10
75.406155
20
62.164631
11
74.876989
21
62.693797
0
LINE
8
Layer 1
10
74.876989
20
62.693797
11
74.876989
21
62.958380
0
LINE
8
Layer 1
10
74.876989
20
62.958380
11
74.612406
21
63.222963
0
LINE
8
Layer 1
10
74.612406
20
63.222963
11
74.612406
21
63.752129
0
LINE
8
Layer 1
10
74.612406
20
63.752129
11
74.347823
21
64.016712
0
LINE
8
Layer 1
10
74.347823
20
64.016712
11
74.347823
21
64.281295
0
LINE
8
Layer 1
10
74.347823
20
64.281295
11
74.083240
21
64.545878
0
LINE
8
Layer 1
10
74.083240
20
64.545878
11
74.083240
21
64.810461
0
LINE
8
Layer 1
10
74.083240
20
64.810461
11
73.818657
21
65.075044
0
LINE
8
Layer 1
10
73.818657
20
65.075044
11
73.554074
21
65.075044
0
LINE
8
Layer 1
10
73.554074
20
65.075044
11
73.289491
21
65.339627
0
LINE
8
Layer 1
10
73.289491
20
65.339627
11
73.289491
21
65.604210
0
LINE
8
Layer 1
10
73.289491
20
65.604210
11
73.024908
21
65.868793
0
LINE
8
Layer 1
10
73.024908
20
65.868793
11
73.024908
21
66.662542
0
LINE
8
Layer 1
10
73.024908
20
66.662542
11
72.231159
21
67.456291
0
LINE
8
Layer 1
10
72.231159
20
67.456291
11
72.231159
21
67.985457
0
LINE
8
Layer 1
10
72.231159
20
67.985457
11
72.495742
21
68.250040
0
LINE
8
Layer 1
10
72.495742
20
68.250040
11
73.024908
21
68.250040
0
LINE
8
Layer 1
10
73.024908
20
68.250040
11
73.289491
21
67.985457
0
LINE
8
Layer 1
10
73.289491
20
67.985457
11
73.554074
21
67.985457
0
LINE
8
Layer 1
10
73.554074
20
67.985457
11
73.818657
21
67.720874
0
LINE
8
Layer 1
10
73.818657
20
67.720874
11
74.083240
21
67.720874
0
LINE
8
Layer 1
10
74.083240
20
67.720874
11
74.347823
21
67.456291
0
LINE
8
Layer 1
10
74.347823
20
67.456291
11
74.876989
21
67.456291
0
LINE
8
Layer 1
10
74.876989
20
67.456291
11
75.141572
21
67.191708
0
LINE
8
Layer 1
10
75.141572
20
67.191708
11
75.935321
21
67.191708
0
LINE
8
Layer 1
10
75.935321
20
67.191708
11
76.199904
21
67.456291
0
LINE
8
Layer 1
10
76.199904
20
67.456291
11
76.729070
21
67.456291
0
LINE
8
Layer 1
10
76.729070
20
67.456291
11
77.787402
21
68.514623
0
LINE
8
Layer 1
10
77.787402
20
68.514623
11
77.787402
21
68.779206
0
LINE
8
Layer 1
10
77.787402
20
68.779206
11
78.316568
21
69.308372
0
LINE
8
Layer 1
10
78.316568
20
69.308372
11
78.845734
21
69.308372
0
LINE
8
Layer 1
10
78.845734
20
69.308372
11
79.110317
21
69.043789
0
LINE
8
Layer 1
10
79.110317
20
69.043789
11
79.374900
21
69.043789
0
LINE
8
Layer 1
10
79.374900
20
69.043789
11
80.168649
21
68.250040
0
LINE
8
Layer 1
10
80.168649
20
68.250040
11
80.168649
21
67.985457
0
LINE
8
Layer 1
10
80.168649
20
67.985457
11
80.697815
21
67.456291
0
LINE
8
Layer 1
10
80.697815
20
67.456291
11
81.226981
21
67.456291
0
LINE
8
Layer 1
10
81.226981
20
67.456291
11
81.491564
21
67.191708
0
LINE
8
Layer 1
10
81.491564
20
67.191708
11
81.756147
21
67.456291
0
LINE
8
Layer 1
10
81.756147
20
67.456291
11
81.756147
21
67.985457
0
LINE
8
Layer 1
10
81.756147
20
67.985457
11
80.962398
21
68.779206
0
LINE
8
Layer 1
10
80.962398
20
68.779206
11
80.962398
21
69.043789
0
LINE
8
Layer 1
10
80.962398
20
69.043789
11
80.697815
21
69.308372
0
LINE
8
Layer 1
10
80.697815
20
69.308372
11
80.697815
21
69.837538
0
LINE
8
Layer 1
10
80.697815
20
69.837538
11
81.491564
21
70.631287
0
LINE
8
Layer 1
10
81.491564
20
70.631287
11
82.814479
21
70.631287
0
LINE
8
Layer 1
10
82.814479
20
70.631287
11
83.079062
21
70.895870
0
LINE
8
Layer 1
10
83.079062
20
70.895870
11
83.079062
21
72.747951
0
LINE
8
Layer 1
10
83.079062
20
72.747951
11
83.343645
21
73.012534
0
LINE
8
Layer 1
10
83.343645
20
73.012534
11
84.137394
21
73.012534
0
LINE
8
Layer 1
10
84.137394
20
73.012534
11
84.666560
21
72.483368
0
LINE
8
Layer 1
10
84.666560
20
72.483368
11
84.666560
21
72.218785
0
LINE
8
Layer 1
10
84.666560
20
72.218785
11
84.931143
21
71.954202
0
LINE
8
Layer 1
10
84.931143
20
71.954202
11
84.931143
21
69.308372
0
LINE
8
Layer 1
10
84.931143
20
69.308372
11
84.666560
21
69.043789
0
LINE
8
Layer 1
10
84.666560
20
69.043789
11
84.666560
21
68.250040
0
LINE
8
Layer 1
10
84.666560
20
68.250040
11
84.931143
21
67.985457
0
LINE
8
Layer 1
10
84.931143
20
67.985457
11
85.460309
21
67.985457
0
LINE
8
Layer 1
10
85.460309
20
67.985457
11
85.724892
21
68.250040
0
LINE
8
Layer 1
10
85.724892
20
68.250040
11
86.254058
21
68.250040
0
LINE
8
Layer 1
10
86.254058
20
68.250040
11
86.518641
21
68.514623
0
LINE
8
Layer 1
10
86.518641
20
68.514623
11
86.783224
21
68.514623
0
LINE
8
Layer 1
10
86.783224
20
68.514623
11
86.783224
21
68.779206
0
LINE
8
Layer 1
10
86.783224
20
68.779206
11
87.047807
21
69.043789
0
LINE
8
Layer 1
10
87.047807
20
69.043789
11
87.312390
21
69.043789
0
LINE
8
Layer 1
10
87.312390
20
69.043789
11
87.576973
21
69.308372
0
LINE
8
Layer 1
10
87.576973
20
69.308372
11
87.841556
21
69.308372
0
LINE
8
Layer 1
10
87.841556
20
69.308372
11
88.899888
21
70.366704
0
LINE
8
Layer 1
10
88.899888
20
70.366704
11
89.164471
21
70.366704
0
LINE
8
Layer 1
10
89.164471
20
70.366704
11
89.693637
21
70.895870
0
LINE
8
Layer 1
10
89.693637
20
70.895870
11
89.958220
21
70.895870
0
LINE
8
Layer 1
10
89.958220
20
70.895870
11
90.222803
21
71.160453
0
LINE
8
Layer 1
10
90.222803
20
71.160453
11
90.751969
21
71.160453
0
LINE
8
Layer 1
10
90.751969
20
71.160453
11
90.751969
21
71.954202
0
LINE
8
Layer 1
10
90.751969
20
71.954202
11
90.487386
21
72.218785
0
LINE
8
Layer 1
10
90.487386
20
72.218785
11
90.487386
21
72.483368
0
LINE
8
Layer 1
10
90.487386
20
72.483368
11
90.222803
21
72.747951
0
LINE
8
Layer 1
10
90.222803
20
72.747951
11
88.899888
21
72.747951
0
LINE
8
Layer 1
10
88.899888
20
72.747951
11
88.635305
21
73.012534
0
LINE
8
Layer 1
10
88.635305
20
73.012534
11
88.106139
21
73.012534
0
LINE
8
Layer 1
10
88.106139
20
73.012534
11
87.841556
21
73.277117
0
LINE
8
Layer 1
10
87.841556
20
73.277117
11
87.841556
21
73.541700
0
LINE
8
Layer 1
10
87.841556
20
73.541700
11
88.370722
21
74.070866
0
LINE
8
Layer 1
10
88.370722
20
74.070866
11
89.693637
21
74.070866
0
LINE
8
Layer 1
10
89.693637
20
74.070866
11
89.958220
21
73.806283
0
LINE
8
Layer 1
10
89.958220
20
73.806283
11
90.751969
21
73.806283
0
LINE
8
Layer 1
10
90.751969
20
73.806283
11
91.281135
21
73.277117
0
LINE
8
Layer 1
10
91.281135
20
73.277117
11
91.281135
21
73.012534
0
LINE
8
Layer 1
10
91.281135
20
73.012534
11
92.339467
21
73.012534
0
LINE
8
Layer 1
10
92.339467
20
73.012534
11
92.868633
21
72.483368
0
LINE
8
Layer 1
10
92.868633
20
72.483368
11
92.868633
21
72.218785
0
LINE
8
Layer 1
10
92.868633
20
72.218785
11
91.810301
21
71.160453
0
LINE
8
Layer 1
10
91.810301
20
71.160453
11
91.281135
21
71.160453
0
LINE
8
Layer 1
10
91.281135
20
71.160453
11
91.281135
21
70.631287
0
LINE
8
Layer 1
10
91.281135
20
70.631287
11
90.751969
21
70.102121
0
LINE
8
Layer 1
10
90.751969
20
70.102121
11
90.487386
21
70.102121
0
LINE
8
Layer 1
10
90.487386
20
70.102121
11
89.164471
21
68.779206
0
LINE
8
Layer 1
10
89.164471
20
68.779206
11
88.899888
21
68.779206
0
LINE
8
Layer 1
10
88.899888
20
68.779206
11
88.106139
21
67.985457
0
LINE
8
Layer 1
10
88.106139
20
67.985457
11
87.841556
21
67.985457
0
LINE
8
Layer 1
10
87.841556
20
67.985457
11
86.783224
21
66.927125
0
LINE
8
Layer 1
10
86.783224
20
66.927125
11
86.518641
21
66.927125
0
LINE
8
Layer 1
10
86.518641
20
66.927125
11
85.724892
21
66.133376
0
LINE
8
Layer 1
10
85.724892
20
66.133376
11
85.460309
21
66.133376
0
LINE
8
Layer 1
10
85.460309
20
66.133376
11
84.137394
21
64.810461
0
LINE
8
Layer 1
10
84.137394
20
64.810461
11
83.872811
21
64.810461
0
LINE
8
Layer 1
10
83.872811
20
64.810461
11
83.343645
21
64.281295
0
LINE
8
Layer 1
10
83.343645
20
64.281295
11
83.079062
21
64.281295
0
LINE
8
Layer 1
10
83.079062
20
64.281295
11
83.079062
21
64.016712
0
LINE
8
Layer 1
10
83.079062
20
64.016712
11
82.814479
21
63.752129
0
LINE
8
Layer 1
10
82.814479
20
63.752129
11
82.814479
21
63.222963
0
LINE
8
Layer 1
10
82.814479
20
63.222963
11
82.549896
21
62.958380
0
LINE
8
Layer 1
10
82.549896
20
62.958380
11
82.549896
21
62.693797
0
LINE
8
Layer 1
10
82.549896
20
62.693797
11
82.285313
21
62.429214
0
LINE
8
Layer 1
10
82.285313
20
62.429214
11
82.020730
21
62.429214
0
LINE
8
Layer 1
10
82.020730
20
62.429214
11
81.491564
21
61.900048
0
LINE
8
Layer 1
10
81.491564
20
61.900048
11
80.168649
21
61.900048
0
LINE
8
Layer 1
10
80.168649
20
61.900048
11
80.168649
21
60.841716
0
LINE
8
Layer 1
10
80.168649
20
60.841716
11
81.756147
21
60.841716
0
LINE
8
Layer 1
10
81.756147
20
60.841716
11
82.549896
21
60.047967
0
LINE
8
Layer 1
10
82.549896
20
60.047967
11
82.549896
21
59.783384
0
LINE
8
Layer 1
10
82.549896
20
59.783384
11
82.285313
21
59.518801
0
LINE
8
Layer 1
10
82.285313
20
59.518801
11
82.285313
21
58.725052
0
LINE
8
Layer 1
10
82.285313
20
58.725052
11
82.020730
21
58.460469
0
LINE
8
Layer 1
10
82.020730
20
58.460469
11
82.020730
21
55.550056
0
LINE
8
Layer 1
10
82.020730
20
55.550056
11
82.285313
21
55.285473
0
LINE
8
Layer 1
10
82.285313
20
55.285473
11
82.285313
21
54.227141
0
LINE
8
Layer 1
10
82.285313
20
54.227141
11
82.549896
21
53.962558
0
LINE
8
Layer 1
10
82.549896
20
53.962558
11
82.549896
21
53.697975
0
LINE
8
Layer 1
10
82.549896
20
53.697975
11
82.814479
21
53.433392
0
LINE
8
Layer 1
10
82.814479
20
53.433392
11
82.814479
21
52.375060
0
LINE
8
Layer 1
10
82.814479
20
52.375060
11
83.079062
21
52.110477
0
LINE
8
Layer 1
10
83.079062
20
52.110477
11
83.079062
21
51.845894
0
LINE
8
Layer 1
10
83.079062
20
51.845894
11
83.872811
21
51.052145
0
LINE
8
Layer 1
10
83.872811
20
51.052145
11
83.872811
21
50.522979
0
LINE
8
Layer 1
10
83.872811
20
50.522979
11
84.137394
21
50.258396
0
LINE
8
Layer 1
10
84.137394
20
50.258396
11
84.137394
21
49.993813
0
LINE
8
Layer 1
10
84.137394
20
49.993813
11
84.401977
21
49.729230
0
LINE
8
Layer 1
10
84.401977
20
49.729230
11
84.666560
21
49.993813
0
LINE
8
Layer 1
10
84.666560
20
49.993813
11
84.666560
21
50.522979
0
LINE
8
Layer 1
10
84.666560
20
50.522979
11
84.401977
21
50.787562
0
LINE
8
Layer 1
10
84.401977
20
50.787562
11
84.401977
21
51.581311
0
LINE
8
Layer 1
10
84.401977
20
51.581311
11
84.137394
21
51.845894
0
LINE
8
Layer 1
10
84.137394
20
51.845894
11
84.137394
21
52.110477
0
LINE
8
Layer 1
10
84.137394
20
52.110477
11
83.872811
21
52.375060
0
LINE
8
Layer 1
10
83.872811
20
52.375060
11
83.872811
21
52.639643
0
LINE
8
Layer 1
10
83.872811
20
52.639643
11
83.608228
21
52.904226
0
LINE
8
Layer 1
10
83.608228
20
52.904226
11
83.608228
21
53.697975
0
LINE
8
Layer 1
10
83.608228
20
53.697975
11
83.343645
21
53.962558
0
LINE
8
Layer 1
10
83.343645
20
53.962558
11
83.343645
21
54.491724
0
LINE
8
Layer 1
10
83.343645
20
54.491724
11
82.814479
21
55.020890
0
LINE
8
Layer 1
10
82.814479
20
55.020890
11
82.814479
21
58.725052
0
LINE
8
Layer 1
10
82.814479
20
58.725052
11
83.079062
21
58.989635
0
LINE
8
Layer 1
10
83.079062
20
58.989635
11
83.079062
21
59.518801
0
LINE
8
Layer 1
10
83.079062
20
59.518801
11
83.343645
21
59.783384
0
LINE
8
Layer 1
10
83.343645
20
59.783384
11
83.343645
21
60.312550
0
LINE
8
Layer 1
10
83.343645
20
60.312550
11
83.608228
21
60.577133
0
LINE
8
Layer 1
10
83.608228
20
60.577133
11
83.608228
21
61.106299
0
LINE
8
Layer 1
10
83.608228
20
61.106299
11
83.872811
21
61.370882
0
LINE
8
Layer 1
10
83.872811
20
61.370882
11
83.872811
21
62.164631
0
LINE
8
Layer 1
10
83.872811
20
62.164631
11
84.137394
21
62.429214
0
LINE
8
Layer 1
10
84.137394
20
62.429214
11
84.137394
21
62.693797
0
LINE
8
Layer 1
10
84.137394
20
62.693797
11
84.401977
21
62.958380
0
LINE
8
Layer 1
10
84.401977
20
62.958380
11
84.401977
21
63.487546
0
LINE
8
Layer 1
10
84.401977
20
63.487546
11
84.666560
21
63.752129
0
LINE
8
Layer 1
10
84.666560
20
63.752129
11
84.666560
21
64.016712
0
LINE
8
Layer 1
10
84.666560
20
64.016712
11
85.195726
21
64.545878
0
LINE
8
Layer 1
10
85.195726
20
64.545878
11
85.460309
21
64.545878
0
LINE
8
Layer 1
10
85.460309
20
64.545878
11
85.460309
21
64.810461
0
LINE
8
Layer 1
10
85.460309
20
64.810461
11
85.989475
21
65.339627
0
LINE
8
Layer 1
10
85.989475
20
65.339627
11
86.254058
21
65.339627
0
LINE
8
Layer 1
10
86.254058
20
65.339627
11
87.312390
21
66.397959
0
LINE
8
Layer 1
10
87.312390
20
66.397959
11
87.576973
21
66.397959
0
LINE
8
Layer 1
10
87.576973
20
66.397959
11
88.370722
21
67.191708
0
LINE
8
Layer 1
10
88.370722
20
67.191708
11
88.635305
21
67.191708
0
LINE
8
Layer 1
10
88.635305
20
67.191708
11
88.899888
21
67.456291
0
LINE
8
Layer 1
10
88.899888
20
67.456291
11
89.164471
21
67.456291
0
LINE
8
Layer 1
10
89.164471
20
67.456291
11
89.958220
21
68.250040
0
LINE
8
Layer 1
10
89.958220
20
68.250040
11
90.222803
21
68.250040
0
LINE
8
Layer 1
10
90.222803
20
68.250040
11
90.487386
21
68.514623
0
LINE
8
Layer 1
10
90.487386
20
68.514623
11
90.487386
21
68.779206
0
LINE
8
Layer 1
10
90.487386
20
68.779206
11
90.751969
21
69.043789
0
LINE
8
Layer 1
10
90.751969
20
69.043789
11
91.016552
21
69.043789
0
LINE
8
Layer 1
10
91.016552
20
69.043789
11
92.339467
21
70.366704
0
LINE
8
Layer 1
10
92.339467
20
70.366704
11
92.339467
21
70.631287
0
LINE
8
Layer 1
10
92.339467
20
70.631287
11
92.868633
21
71.160453
0
LINE
8
Layer 1
10
92.868633
20
71.160453
11
92.868633
21
73.277117
0
LINE
8
Layer 1
10
92.868633
20
73.277117
11
92.339467
21
73.806283
0
LINE
8
Layer 1
10
92.339467
20
73.806283
11
92.074884
21
73.806283
0
LINE
8
Layer 1
10
92.074884
20
73.806283
11
91.545718
21
74.335449
0
LINE
8
Layer 1
10
91.545718
20
74.335449
11
91.281135
21
74.335449
0
LINE
8
Layer 1
10
91.281135
20
74.335449
11
91.016552
21
74.600032
0
LINE
8
Layer 1
10
91.016552
20
74.600032
11
87.841556
21
74.600032
0
LINE
8
Layer 1
10
87.841556
20
74.600032
11
87.576973
21
74.864615
0
LINE
8
Layer 1
10
87.576973
20
74.864615
11
87.047807
21
74.864615
0
LINE
8
Layer 1
10
87.047807
20
74.864615
11
86.783224
21
74.600032
0
LINE
8
Layer 1
10
86.783224
20
74.600032
11
86.518641
21
74.600032
0
LINE
8
Layer 1
10
86.518641
20
74.600032
11
86.254058
21
74.335449
0
LINE
8
Layer 1
10
86.254058
20
74.335449
11
85.989475
21
74.335449
0
LINE
8
Layer 1
10
85.989475
20
74.335449
11
85.724892
21
74.070866
0
LINE
8
Layer 1
10
85.724892
20
74.070866
11
85.460309
21
74.070866
0
LINE
8
Layer 1
10
85.460309
20
74.070866
11
85.195726
21
73.806283
0
LINE
8
Layer 1
10
85.195726
20
73.806283
11
84.931143
21
74.070866
0
LINE
8
Layer 1
10
84.931143
20
74.070866
11
84.137394
21
74.070866
0
LINE
8
Layer 1
10
84.137394
20
74.070866
11
83.872811
21
73.806283
0
LINE
8
Layer 1
10
83.872811
20
73.806283
11
83.608228
21
73.806283
0
LINE
8
Layer 1
10
83.608228
20
73.806283
11
83.343645
21
73.541700
0
LINE
8
Layer 1
10
83.343645
20
73.541700
11
83.079062
21
73.806283
0
LINE
8
Layer 1
10
83.079062
20
73.806283
11
83.079062
21
74.070866
0
LINE
8
Layer 1
10
83.079062
20
74.070866
11
81.756147
21
75.393781
0
LINE
8
Layer 1
10
81.756147
20
75.393781
11
81.756147
21
75.658364
0
LINE
8
Layer 1
10
81.756147
20
75.658364
11
81.491564
21
75.922947
0
LINE
8
Layer 1
10
81.491564
20
75.922947
11
81.491564
21
76.187530
0
LINE
8
Layer 1
10
81.491564
20
76.187530
11
81.226981
21
76.452113
0
LINE
8
Layer 1
10
81.226981
20
76.452113
11
80.962398
21
76.452113
0
LINE
8
Layer 1
10
80.962398
20
76.452113
11
80.433232
21
76.981279
0
LINE
8
Layer 1
10
80.433232
20
76.981279
11
80.433232
21
77.245862
0
LINE
8
Layer 1
10
80.433232
20
77.245862
11
80.433232
21
76.187530
0
LINE
8
Layer 1
10
80.433232
20
76.187530
11
80.962398
21
75.658364
0
LINE
8
Layer 1
10
80.962398
20
75.658364
11
80.962398
21
75.129198
0
LINE
8
Layer 1
10
80.962398
20
75.129198
11
81.226981
21
74.864615
0
LINE
8
Layer 1
10
81.226981
20
74.864615
11
81.226981
21
74.600032
0
LINE
8
Layer 1
10
81.226981
20
74.600032
11
81.491564
21
74.335449
0
LINE
8
Layer 1
10
81.491564
20
74.335449
11
81.491564
21
72.747951
0
LINE
8
Layer 1
10
81.491564
20
72.747951
11
81.226981
21
72.483368
0
LINE
8
Layer 1
10
81.226981
20
72.483368
11
81.226981
21
71.954202
0
LINE
8
Layer 1
10
81.226981
20
71.954202
11
80.962398
21
71.689619
0
LINE
8
Layer 1
10
80.962398
20
71.689619
11
80.962398
21
71.425036
0
LINE
8
Layer 1
10
80.962398
20
71.425036
11
80.433232
21
70.895870
0
LINE
8
Layer 1
10
80.433232
20
70.895870
11
79.904066
21
70.895870
0
LINE
8
Layer 1
10
79.904066
20
70.895870
11
79.639483
21
70.631287
0
LINE
8
Layer 1
10
79.639483
20
70.631287
11
79.110317
21
70.631287
0
LINE
8
Layer 1
10
79.110317
20
70.631287
11
78.845734
21
70.895870
0
LINE
8
Layer 1
10
78.845734
20
70.895870
11
78.316568
21
70.895870
0
LINE
8
Layer 1
10
78.316568
20
70.895870
11
77.787402
21
71.425036
0
LINE
8
Layer 1
10
77.787402
20
71.425036
11
77.787402
21
71.689619
0
LINE
8
Layer 1
10
77.787402
20
71.689619
11
76.993653
21
72.483368
0
LINE
8
Layer 1
10
76.993653
20
72.483368
11
76.993653
21
73.806283
0
LINE
8
Layer 1
10
76.993653
20
73.806283
11
77.258236
21
74.070866
0
LINE
8
Layer 1
10
77.258236
20
74.070866
11
77.258236
21
74.864615
0
LINE
8
Layer 1
10
77.258236
20
74.864615
11
76.993653
21
75.129198
0
LINE
8
Layer 1
10
76.993653
20
75.129198
11
77.522819
21
75.658364
0
LINE
8
Layer 1
10
77.522819
20
75.658364
11
77.522819
21
75.922947
0
LINE
8
Layer 1
10
77.522819
20
75.922947
11
77.787402
21
76.187530
0
LINE
8
Layer 1
10
77.787402
20
76.187530
11
77.787402
21
76.452113
0
LINE
8
Layer 1
10
77.787402
20
76.452113
11
77.522819
21
76.716696
0
LINE
8
Layer 1
10
77.522819
20
76.716696
11
76.464487
21
75.658364
0
LINE
8
Layer 1
10
76.464487
20
75.658364
11
75.406155
21
75.658364
0
LINE
8
Layer 1
10
75.406155
20
75.658364
11
74.876989
21
76.187530
0
LINE
8
Layer 1
10
74.876989
20
76.187530
11
74.876989
21
76.452113
0
LINE
8
Layer 1
10
74.876989
20
76.452113
11
75.670738
21
77.245862
0
LINE
8
Layer 1
10
75.670738
20
77.245862
11
75.670738
21
77.510445
0
LINE
8
Layer 1
10
83.343645
20
77.775028
11
83.079062
21
77.510445
0
LINE
8
Layer 1
10
83.079062
20
77.510445
11
82.814479
21
77.510445
0
LINE
8
Layer 1
10
82.814479
20
77.510445
11
82.814479
21
77.245862
0
LINE
8
Layer 1
10
82.814479
20
77.245862
11
83.608228
21
76.452113
0
LINE
8
Layer 1
10
83.608228
20
76.452113
11
83.608228
21
76.187530
0
LINE
8
Layer 1
10
83.608228
20
76.187530
11
83.872811
21
75.922947
0
LINE
8
Layer 1
10
83.872811
20
75.922947
11
83.872811
21
75.658364
0
LINE
8
Layer 1
10
83.872811
20
75.658364
11
84.137394
21
75.393781
0
LINE
8
Layer 1
10
84.137394
20
75.393781
11
84.137394
21
74.600032
0
LINE
8
Layer 1
10
84.137394
20
74.600032
11
84.401977
21
74.600032
0
LINE
8
Layer 1
10
84.401977
20
74.600032
11
84.666560
21
74.864615
0
LINE
8
Layer 1
10
84.666560
20
74.864615
11
84.666560
21
76.452113
0
LINE
8
Layer 1
10
81.226981
20
79.097943
11
81.491564
21
79.097943
0
LINE
8
Layer 1
10
79.374900
20
80.685441
11
78.845734
21
80.156275
0
LINE
8
Layer 1
10
78.845734
20
80.156275
11
78.845734
21
79.891692
0
LINE
8
Layer 1
10
78.845734
20
79.891692
11
79.110317
21
79.627109
0
LINE
8
Layer 1
10
79.110317
20
79.627109
11
79.904066
21
79.627109
0
LINE
8
Layer 1
10
79.904066
20
79.627109
11
79.904066
21
79.891692
0
LINE
8
Layer 1
10
79.904066
20
79.891692
11
80.168649
21
80.156275
0
LINE
8
Layer 1
10
80.168649
20
80.156275
11
79.639483
21
80.685441
 0 
ENDSEC
 0 
EOF